<mxfile host="app.diagrams.net" modified="2023-10-26T22:35:16.065Z" agent="Mozilla/5.0 (Windows NT 10.0; Win64; x64) AppleWebKit/537.36 (KHTML, like Gecko) Chrome/118.0.0.0 Safari/537.36" etag="MMRYm3eUbL7SHPjneJYZ" version="22.0.8" type="device">
  <diagram name="Сторінка-1" id="BG7ZqqXnK22bOfR4pvgS">
    <mxGraphModel dx="3452" dy="1335" grid="1" gridSize="10" guides="1" tooltips="1" connect="1" arrows="1" fold="1" page="1" pageScale="1" pageWidth="827" pageHeight="1169" math="0" shadow="0">
      <root>
        <mxCell id="0" />
        <mxCell id="1" parent="0" />
        <mxCell id="vTgYtGO2I8FvDi0Zc58N-1" value="Seller" style="rounded=0;whiteSpace=wrap;html=1;" vertex="1" parent="1">
          <mxGeometry x="200" y="140" width="120" height="60" as="geometry" />
        </mxCell>
        <mxCell id="vTgYtGO2I8FvDi0Zc58N-2" value="Invoise_id" style="ellipse;whiteSpace=wrap;html=1;" vertex="1" parent="1">
          <mxGeometry x="10" y="140" width="120" height="80" as="geometry" />
        </mxCell>
        <mxCell id="vTgYtGO2I8FvDi0Zc58N-3" value="Seller_id" style="ellipse;whiteSpace=wrap;html=1;" vertex="1" parent="1">
          <mxGeometry x="50" y="40" width="120" height="80" as="geometry" />
        </mxCell>
        <mxCell id="vTgYtGO2I8FvDi0Zc58N-4" value="Seller_Name" style="ellipse;whiteSpace=wrap;html=1;" vertex="1" parent="1">
          <mxGeometry x="210" y="20" width="120" height="80" as="geometry" />
        </mxCell>
        <mxCell id="vTgYtGO2I8FvDi0Zc58N-5" value="Seller_Adress" style="ellipse;whiteSpace=wrap;html=1;" vertex="1" parent="1">
          <mxGeometry x="340" y="20" width="120" height="80" as="geometry" />
        </mxCell>
        <mxCell id="vTgYtGO2I8FvDi0Zc58N-8" value="" style="endArrow=none;html=1;rounded=0;exitX=0.5;exitY=0;exitDx=0;exitDy=0;" edge="1" parent="1" source="vTgYtGO2I8FvDi0Zc58N-1">
          <mxGeometry width="50" height="50" relative="1" as="geometry">
            <mxPoint x="220" y="150" as="sourcePoint" />
            <mxPoint x="270" y="100" as="targetPoint" />
          </mxGeometry>
        </mxCell>
        <mxCell id="vTgYtGO2I8FvDi0Zc58N-11" value="" style="endArrow=none;html=1;rounded=0;entryX=0.303;entryY=0.965;entryDx=0;entryDy=0;entryPerimeter=0;" edge="1" parent="1" target="vTgYtGO2I8FvDi0Zc58N-5">
          <mxGeometry width="50" height="50" relative="1" as="geometry">
            <mxPoint x="320" y="150" as="sourcePoint" />
            <mxPoint x="370" y="100" as="targetPoint" />
          </mxGeometry>
        </mxCell>
        <mxCell id="vTgYtGO2I8FvDi0Zc58N-12" value="" style="endArrow=none;html=1;rounded=0;entryX=0;entryY=0.5;entryDx=0;entryDy=0;exitX=1;exitY=0.5;exitDx=0;exitDy=0;" edge="1" parent="1" source="vTgYtGO2I8FvDi0Zc58N-2" target="vTgYtGO2I8FvDi0Zc58N-1">
          <mxGeometry width="50" height="50" relative="1" as="geometry">
            <mxPoint x="130" y="190" as="sourcePoint" />
            <mxPoint x="180" y="140" as="targetPoint" />
          </mxGeometry>
        </mxCell>
        <mxCell id="vTgYtGO2I8FvDi0Zc58N-13" value="" style="endArrow=none;html=1;rounded=0;exitX=0.933;exitY=0.875;exitDx=0;exitDy=0;exitPerimeter=0;entryX=0;entryY=0;entryDx=0;entryDy=0;" edge="1" parent="1" source="vTgYtGO2I8FvDi0Zc58N-3" target="vTgYtGO2I8FvDi0Zc58N-1">
          <mxGeometry width="50" height="50" relative="1" as="geometry">
            <mxPoint x="160" y="160" as="sourcePoint" />
            <mxPoint x="210" y="110" as="targetPoint" />
          </mxGeometry>
        </mxCell>
        <mxCell id="vTgYtGO2I8FvDi0Zc58N-14" value="gets" style="rhombus;whiteSpace=wrap;html=1;" vertex="1" parent="1">
          <mxGeometry x="420" y="130" width="140" height="80" as="geometry" />
        </mxCell>
        <mxCell id="vTgYtGO2I8FvDi0Zc58N-15" value="" style="endArrow=none;html=1;rounded=0;entryX=0;entryY=0.5;entryDx=0;entryDy=0;exitX=1;exitY=0.5;exitDx=0;exitDy=0;" edge="1" parent="1" source="vTgYtGO2I8FvDi0Zc58N-1" target="vTgYtGO2I8FvDi0Zc58N-14">
          <mxGeometry width="50" height="50" relative="1" as="geometry">
            <mxPoint x="390" y="300" as="sourcePoint" />
            <mxPoint x="440" y="250" as="targetPoint" />
          </mxGeometry>
        </mxCell>
        <mxCell id="vTgYtGO2I8FvDi0Zc58N-16" value="Store" style="rounded=0;whiteSpace=wrap;html=1;" vertex="1" parent="1">
          <mxGeometry x="630" y="140" width="120" height="60" as="geometry" />
        </mxCell>
        <mxCell id="vTgYtGO2I8FvDi0Zc58N-17" value="Store_Id" style="ellipse;whiteSpace=wrap;html=1;" vertex="1" parent="1">
          <mxGeometry x="520" y="20" width="120" height="80" as="geometry" />
        </mxCell>
        <mxCell id="vTgYtGO2I8FvDi0Zc58N-18" value="Store_Capacity" style="ellipse;whiteSpace=wrap;html=1;" vertex="1" parent="1">
          <mxGeometry x="680" y="20" width="120" height="80" as="geometry" />
        </mxCell>
        <mxCell id="vTgYtGO2I8FvDi0Zc58N-19" value="Store_Equiment" style="ellipse;whiteSpace=wrap;html=1;" vertex="1" parent="1">
          <mxGeometry x="800" y="170" width="120" height="80" as="geometry" />
        </mxCell>
        <mxCell id="vTgYtGO2I8FvDi0Zc58N-20" value="Seller_iD" style="ellipse;whiteSpace=wrap;html=1;" vertex="1" parent="1">
          <mxGeometry x="800" y="70" width="120" height="80" as="geometry" />
        </mxCell>
        <mxCell id="vTgYtGO2I8FvDi0Zc58N-21" value="" style="endArrow=none;html=1;rounded=0;" edge="1" parent="1" source="vTgYtGO2I8FvDi0Zc58N-14">
          <mxGeometry width="50" height="50" relative="1" as="geometry">
            <mxPoint x="590" y="220" as="sourcePoint" />
            <mxPoint x="630" y="170" as="targetPoint" />
          </mxGeometry>
        </mxCell>
        <mxCell id="vTgYtGO2I8FvDi0Zc58N-22" value="" style="endArrow=none;html=1;rounded=0;entryX=0.75;entryY=1;entryDx=0;entryDy=0;exitX=0;exitY=0.5;exitDx=0;exitDy=0;" edge="1" parent="1" source="vTgYtGO2I8FvDi0Zc58N-19" target="vTgYtGO2I8FvDi0Zc58N-16">
          <mxGeometry width="50" height="50" relative="1" as="geometry">
            <mxPoint x="600" y="300" as="sourcePoint" />
            <mxPoint x="650" y="250" as="targetPoint" />
          </mxGeometry>
        </mxCell>
        <mxCell id="vTgYtGO2I8FvDi0Zc58N-23" value="" style="endArrow=none;html=1;rounded=0;exitX=0.25;exitY=0;exitDx=0;exitDy=0;" edge="1" parent="1" source="vTgYtGO2I8FvDi0Zc58N-16">
          <mxGeometry width="50" height="50" relative="1" as="geometry">
            <mxPoint x="570" y="140" as="sourcePoint" />
            <mxPoint x="620" y="90" as="targetPoint" />
          </mxGeometry>
        </mxCell>
        <mxCell id="vTgYtGO2I8FvDi0Zc58N-24" value="" style="endArrow=none;html=1;rounded=0;" edge="1" parent="1" source="vTgYtGO2I8FvDi0Zc58N-16">
          <mxGeometry width="50" height="50" relative="1" as="geometry">
            <mxPoint x="670" y="150" as="sourcePoint" />
            <mxPoint x="720" y="100" as="targetPoint" />
          </mxGeometry>
        </mxCell>
        <mxCell id="vTgYtGO2I8FvDi0Zc58N-25" value="" style="endArrow=none;html=1;rounded=0;entryX=0;entryY=1;entryDx=0;entryDy=0;exitX=1;exitY=0.25;exitDx=0;exitDy=0;" edge="1" parent="1" source="vTgYtGO2I8FvDi0Zc58N-16" target="vTgYtGO2I8FvDi0Zc58N-20">
          <mxGeometry width="50" height="50" relative="1" as="geometry">
            <mxPoint x="380" y="300" as="sourcePoint" />
            <mxPoint x="430" y="250" as="targetPoint" />
          </mxGeometry>
        </mxCell>
        <mxCell id="vTgYtGO2I8FvDi0Zc58N-26" value="CREATES" style="rhombus;whiteSpace=wrap;html=1;" vertex="1" parent="1">
          <mxGeometry x="175" y="260" width="170" height="80" as="geometry" />
        </mxCell>
        <mxCell id="vTgYtGO2I8FvDi0Zc58N-27" value="" style="endArrow=none;html=1;rounded=0;exitX=0.5;exitY=0;exitDx=0;exitDy=0;" edge="1" parent="1" source="vTgYtGO2I8FvDi0Zc58N-26">
          <mxGeometry width="50" height="50" relative="1" as="geometry">
            <mxPoint x="210" y="250" as="sourcePoint" />
            <mxPoint x="260" y="200" as="targetPoint" />
          </mxGeometry>
        </mxCell>
        <mxCell id="vTgYtGO2I8FvDi0Zc58N-28" value="Invoise" style="rounded=0;whiteSpace=wrap;html=1;" vertex="1" parent="1">
          <mxGeometry x="200" y="420" width="120" height="60" as="geometry" />
        </mxCell>
        <mxCell id="vTgYtGO2I8FvDi0Zc58N-29" value="" style="endArrow=none;html=1;rounded=0;exitX=0.5;exitY=0;exitDx=0;exitDy=0;" edge="1" parent="1" source="vTgYtGO2I8FvDi0Zc58N-28">
          <mxGeometry width="50" height="50" relative="1" as="geometry">
            <mxPoint x="210" y="390" as="sourcePoint" />
            <mxPoint x="260" y="340" as="targetPoint" />
          </mxGeometry>
        </mxCell>
        <mxCell id="vTgYtGO2I8FvDi0Zc58N-30" value="Order_Id" style="ellipse;whiteSpace=wrap;html=1;" vertex="1" parent="1">
          <mxGeometry x="90" y="320" width="120" height="80" as="geometry" />
        </mxCell>
        <mxCell id="vTgYtGO2I8FvDi0Zc58N-31" value="Seller_Id" style="ellipse;whiteSpace=wrap;html=1;" vertex="1" parent="1">
          <mxGeometry x="-40" y="370" width="120" height="80" as="geometry" />
        </mxCell>
        <mxCell id="vTgYtGO2I8FvDi0Zc58N-32" value="Order_Date" style="ellipse;whiteSpace=wrap;html=1;" vertex="1" parent="1">
          <mxGeometry x="-40" y="470" width="120" height="80" as="geometry" />
        </mxCell>
        <mxCell id="vTgYtGO2I8FvDi0Zc58N-33" value="Order_Status" style="ellipse;whiteSpace=wrap;html=1;" vertex="1" parent="1">
          <mxGeometry x="55" y="550" width="120" height="80" as="geometry" />
        </mxCell>
        <mxCell id="vTgYtGO2I8FvDi0Zc58N-34" value="Client_Id" style="ellipse;whiteSpace=wrap;html=1;" vertex="1" parent="1">
          <mxGeometry x="340" y="320" width="120" height="80" as="geometry" />
        </mxCell>
        <mxCell id="vTgYtGO2I8FvDi0Zc58N-35" value="" style="endArrow=none;html=1;rounded=0;exitX=0;exitY=0;exitDx=0;exitDy=0;entryX=1;entryY=1;entryDx=0;entryDy=0;" edge="1" parent="1" source="vTgYtGO2I8FvDi0Zc58N-28" target="vTgYtGO2I8FvDi0Zc58N-30">
          <mxGeometry width="50" height="50" relative="1" as="geometry">
            <mxPoint x="130" y="450" as="sourcePoint" />
            <mxPoint x="170" y="400" as="targetPoint" />
          </mxGeometry>
        </mxCell>
        <mxCell id="vTgYtGO2I8FvDi0Zc58N-36" value="" style="endArrow=none;html=1;rounded=0;exitX=1.014;exitY=0.75;exitDx=0;exitDy=0;exitPerimeter=0;" edge="1" parent="1" source="vTgYtGO2I8FvDi0Zc58N-31">
          <mxGeometry width="50" height="50" relative="1" as="geometry">
            <mxPoint x="150" y="500" as="sourcePoint" />
            <mxPoint x="200" y="450" as="targetPoint" />
          </mxGeometry>
        </mxCell>
        <mxCell id="vTgYtGO2I8FvDi0Zc58N-37" value="" style="endArrow=none;html=1;rounded=0;exitX=1;exitY=0;exitDx=0;exitDy=0;entryX=0;entryY=1;entryDx=0;entryDy=0;" edge="1" parent="1" source="vTgYtGO2I8FvDi0Zc58N-28" target="vTgYtGO2I8FvDi0Zc58N-34">
          <mxGeometry width="50" height="50" relative="1" as="geometry">
            <mxPoint x="380" y="300" as="sourcePoint" />
            <mxPoint x="430" y="250" as="targetPoint" />
          </mxGeometry>
        </mxCell>
        <mxCell id="vTgYtGO2I8FvDi0Zc58N-38" value="" style="endArrow=none;html=1;rounded=0;exitX=0.958;exitY=0.167;exitDx=0;exitDy=0;exitPerimeter=0;entryX=0;entryY=0.75;entryDx=0;entryDy=0;" edge="1" parent="1" source="vTgYtGO2I8FvDi0Zc58N-32" target="vTgYtGO2I8FvDi0Zc58N-28">
          <mxGeometry width="50" height="50" relative="1" as="geometry">
            <mxPoint x="380" y="300" as="sourcePoint" />
            <mxPoint x="430" y="250" as="targetPoint" />
          </mxGeometry>
        </mxCell>
        <mxCell id="vTgYtGO2I8FvDi0Zc58N-39" value="" style="endArrow=none;html=1;rounded=0;exitX=1;exitY=0;exitDx=0;exitDy=0;entryX=0.158;entryY=1.033;entryDx=0;entryDy=0;entryPerimeter=0;" edge="1" parent="1" source="vTgYtGO2I8FvDi0Zc58N-33" target="vTgYtGO2I8FvDi0Zc58N-28">
          <mxGeometry width="50" height="50" relative="1" as="geometry">
            <mxPoint x="380" y="300" as="sourcePoint" />
            <mxPoint x="430" y="250" as="targetPoint" />
          </mxGeometry>
        </mxCell>
        <mxCell id="vTgYtGO2I8FvDi0Zc58N-40" value="buys" style="rhombus;whiteSpace=wrap;html=1;" vertex="1" parent="1">
          <mxGeometry x="430" y="410" width="150" height="80" as="geometry" />
        </mxCell>
        <mxCell id="vTgYtGO2I8FvDi0Zc58N-41" value="Client" style="rounded=0;whiteSpace=wrap;html=1;" vertex="1" parent="1">
          <mxGeometry x="670" y="420" width="120" height="60" as="geometry" />
        </mxCell>
        <mxCell id="vTgYtGO2I8FvDi0Zc58N-42" value="" style="endArrow=none;html=1;rounded=0;entryX=0;entryY=0.5;entryDx=0;entryDy=0;exitX=1;exitY=0.5;exitDx=0;exitDy=0;" edge="1" parent="1" source="vTgYtGO2I8FvDi0Zc58N-28" target="vTgYtGO2I8FvDi0Zc58N-40">
          <mxGeometry width="50" height="50" relative="1" as="geometry">
            <mxPoint x="380" y="300" as="sourcePoint" />
            <mxPoint x="430" y="250" as="targetPoint" />
          </mxGeometry>
        </mxCell>
        <mxCell id="vTgYtGO2I8FvDi0Zc58N-43" value="" style="endArrow=none;html=1;rounded=0;entryX=1;entryY=0.5;entryDx=0;entryDy=0;exitX=0;exitY=0.5;exitDx=0;exitDy=0;" edge="1" parent="1" source="vTgYtGO2I8FvDi0Zc58N-41" target="vTgYtGO2I8FvDi0Zc58N-40">
          <mxGeometry width="50" height="50" relative="1" as="geometry">
            <mxPoint x="380" y="300" as="sourcePoint" />
            <mxPoint x="430" y="250" as="targetPoint" />
          </mxGeometry>
        </mxCell>
        <mxCell id="vTgYtGO2I8FvDi0Zc58N-44" value="First_Name" style="ellipse;whiteSpace=wrap;html=1;" vertex="1" parent="1">
          <mxGeometry x="707" y="300" width="120" height="80" as="geometry" />
        </mxCell>
        <mxCell id="vTgYtGO2I8FvDi0Zc58N-45" value="Client_Id" style="ellipse;whiteSpace=wrap;html=1;" vertex="1" parent="1">
          <mxGeometry x="570" y="310" width="120" height="80" as="geometry" />
        </mxCell>
        <mxCell id="vTgYtGO2I8FvDi0Zc58N-46" value="Last-Name" style="ellipse;whiteSpace=wrap;html=1;" vertex="1" parent="1">
          <mxGeometry x="860" y="320" width="120" height="80" as="geometry" />
        </mxCell>
        <mxCell id="vTgYtGO2I8FvDi0Zc58N-47" value="Date_Of_Birth" style="ellipse;whiteSpace=wrap;html=1;" vertex="1" parent="1">
          <mxGeometry x="530" y="480" width="120" height="80" as="geometry" />
        </mxCell>
        <mxCell id="vTgYtGO2I8FvDi0Zc58N-48" value="Email" style="ellipse;whiteSpace=wrap;html=1;" vertex="1" parent="1">
          <mxGeometry x="660" y="530" width="120" height="80" as="geometry" />
        </mxCell>
        <mxCell id="vTgYtGO2I8FvDi0Zc58N-49" value="Phone_Number" style="ellipse;whiteSpace=wrap;html=1;" vertex="1" parent="1">
          <mxGeometry x="830" y="530" width="120" height="80" as="geometry" />
        </mxCell>
        <mxCell id="vTgYtGO2I8FvDi0Zc58N-50" value="Adress" style="ellipse;whiteSpace=wrap;html=1;" vertex="1" parent="1">
          <mxGeometry x="880" y="420" width="120" height="80" as="geometry" />
        </mxCell>
        <mxCell id="vTgYtGO2I8FvDi0Zc58N-51" value="" style="endArrow=none;html=1;rounded=0;exitX=1;exitY=0.5;exitDx=0;exitDy=0;" edge="1" parent="1" source="vTgYtGO2I8FvDi0Zc58N-41">
          <mxGeometry width="50" height="50" relative="1" as="geometry">
            <mxPoint x="810" y="460" as="sourcePoint" />
            <mxPoint x="880" y="460" as="targetPoint" />
          </mxGeometry>
        </mxCell>
        <mxCell id="vTgYtGO2I8FvDi0Zc58N-52" value="" style="endArrow=none;html=1;rounded=0;exitX=0;exitY=0;exitDx=0;exitDy=0;entryX=1;entryY=1;entryDx=0;entryDy=0;" edge="1" parent="1" source="vTgYtGO2I8FvDi0Zc58N-49" target="vTgYtGO2I8FvDi0Zc58N-41">
          <mxGeometry width="50" height="50" relative="1" as="geometry">
            <mxPoint x="380" y="300" as="sourcePoint" />
            <mxPoint x="430" y="250" as="targetPoint" />
          </mxGeometry>
        </mxCell>
        <mxCell id="vTgYtGO2I8FvDi0Zc58N-53" value="" style="endArrow=none;html=1;rounded=0;entryX=0.5;entryY=0;entryDx=0;entryDy=0;exitX=0.5;exitY=1;exitDx=0;exitDy=0;" edge="1" parent="1" source="vTgYtGO2I8FvDi0Zc58N-41" target="vTgYtGO2I8FvDi0Zc58N-48">
          <mxGeometry width="50" height="50" relative="1" as="geometry">
            <mxPoint x="380" y="300" as="sourcePoint" />
            <mxPoint x="430" y="250" as="targetPoint" />
          </mxGeometry>
        </mxCell>
        <mxCell id="vTgYtGO2I8FvDi0Zc58N-54" value="" style="endArrow=none;html=1;rounded=0;exitX=1;exitY=0;exitDx=0;exitDy=0;entryX=0;entryY=0.75;entryDx=0;entryDy=0;" edge="1" parent="1" source="vTgYtGO2I8FvDi0Zc58N-47" target="vTgYtGO2I8FvDi0Zc58N-41">
          <mxGeometry width="50" height="50" relative="1" as="geometry">
            <mxPoint x="380" y="300" as="sourcePoint" />
            <mxPoint x="430" y="250" as="targetPoint" />
          </mxGeometry>
        </mxCell>
        <mxCell id="vTgYtGO2I8FvDi0Zc58N-55" value="" style="endArrow=none;html=1;rounded=0;entryX=1;entryY=0;entryDx=0;entryDy=0;exitX=0;exitY=1;exitDx=0;exitDy=0;" edge="1" parent="1" source="vTgYtGO2I8FvDi0Zc58N-46" target="vTgYtGO2I8FvDi0Zc58N-41">
          <mxGeometry width="50" height="50" relative="1" as="geometry">
            <mxPoint x="380" y="300" as="sourcePoint" />
            <mxPoint x="430" y="250" as="targetPoint" />
          </mxGeometry>
        </mxCell>
        <mxCell id="vTgYtGO2I8FvDi0Zc58N-56" value="" style="endArrow=none;html=1;rounded=0;entryX=0.5;entryY=0;entryDx=0;entryDy=0;exitX=0.5;exitY=1;exitDx=0;exitDy=0;" edge="1" parent="1" source="vTgYtGO2I8FvDi0Zc58N-44" target="vTgYtGO2I8FvDi0Zc58N-41">
          <mxGeometry width="50" height="50" relative="1" as="geometry">
            <mxPoint x="380" y="300" as="sourcePoint" />
            <mxPoint x="430" y="250" as="targetPoint" />
          </mxGeometry>
        </mxCell>
        <mxCell id="vTgYtGO2I8FvDi0Zc58N-57" value="" style="endArrow=none;html=1;rounded=0;exitX=0;exitY=0;exitDx=0;exitDy=0;entryX=0.608;entryY=1.017;entryDx=0;entryDy=0;entryPerimeter=0;" edge="1" parent="1" source="vTgYtGO2I8FvDi0Zc58N-41" target="vTgYtGO2I8FvDi0Zc58N-45">
          <mxGeometry width="50" height="50" relative="1" as="geometry">
            <mxPoint x="380" y="300" as="sourcePoint" />
            <mxPoint x="430" y="250" as="targetPoint" />
          </mxGeometry>
        </mxCell>
        <mxCell id="vTgYtGO2I8FvDi0Zc58N-59" value="has_info" style="rhombus;whiteSpace=wrap;html=1;" vertex="1" parent="1">
          <mxGeometry x="150" y="640" width="210" height="80" as="geometry" />
        </mxCell>
        <mxCell id="vTgYtGO2I8FvDi0Zc58N-60" value="Order_Detail" style="rounded=0;whiteSpace=wrap;html=1;" vertex="1" parent="1">
          <mxGeometry x="195" y="850" width="120" height="60" as="geometry" />
        </mxCell>
        <mxCell id="vTgYtGO2I8FvDi0Zc58N-61" value="sells" style="rhombus;whiteSpace=wrap;html=1;" vertex="1" parent="1">
          <mxGeometry x="430" y="830" width="160" height="80" as="geometry" />
        </mxCell>
        <mxCell id="vTgYtGO2I8FvDi0Zc58N-62" value="Product" style="rounded=0;whiteSpace=wrap;html=1;" vertex="1" parent="1">
          <mxGeometry x="740" y="850" width="120" height="60" as="geometry" />
        </mxCell>
        <mxCell id="vTgYtGO2I8FvDi0Zc58N-63" value="Product_Description" style="ellipse;whiteSpace=wrap;html=1;" vertex="1" parent="1">
          <mxGeometry x="860" y="1000" width="120" height="80" as="geometry" />
        </mxCell>
        <mxCell id="vTgYtGO2I8FvDi0Zc58N-64" value="Product_Id" style="ellipse;whiteSpace=wrap;html=1;" vertex="1" parent="1">
          <mxGeometry x="930" y="810" width="120" height="80" as="geometry" />
        </mxCell>
        <mxCell id="vTgYtGO2I8FvDi0Zc58N-65" value="Product_Name" style="ellipse;whiteSpace=wrap;html=1;" vertex="1" parent="1">
          <mxGeometry x="940" y="910" width="120" height="80" as="geometry" />
        </mxCell>
        <mxCell id="vTgYtGO2I8FvDi0Zc58N-66" value="Quantity_in_Stock" style="ellipse;whiteSpace=wrap;html=1;" vertex="1" parent="1">
          <mxGeometry x="720" y="990" width="120" height="80" as="geometry" />
        </mxCell>
        <mxCell id="vTgYtGO2I8FvDi0Zc58N-67" value="Price" style="ellipse;whiteSpace=wrap;html=1;" vertex="1" parent="1">
          <mxGeometry x="600" y="930" width="120" height="80" as="geometry" />
        </mxCell>
        <mxCell id="vTgYtGO2I8FvDi0Zc58N-68" value="Total_Price" style="ellipse;whiteSpace=wrap;html=1;" vertex="1" parent="1">
          <mxGeometry x="330" y="1000" width="120" height="80" as="geometry" />
        </mxCell>
        <mxCell id="vTgYtGO2I8FvDi0Zc58N-69" value="Quantity" style="ellipse;whiteSpace=wrap;html=1;" vertex="1" parent="1">
          <mxGeometry x="210" y="1070" width="120" height="80" as="geometry" />
        </mxCell>
        <mxCell id="vTgYtGO2I8FvDi0Zc58N-70" value="Product_Id" style="ellipse;whiteSpace=wrap;html=1;" vertex="1" parent="1">
          <mxGeometry x="75" y="1000" width="120" height="80" as="geometry" />
        </mxCell>
        <mxCell id="vTgYtGO2I8FvDi0Zc58N-71" value="Order_Id" style="ellipse;whiteSpace=wrap;html=1;" vertex="1" parent="1">
          <mxGeometry x="20" y="890" width="120" height="80" as="geometry" />
        </mxCell>
        <mxCell id="vTgYtGO2I8FvDi0Zc58N-72" value="OrderDetail_Id" style="ellipse;whiteSpace=wrap;html=1;" vertex="1" parent="1">
          <mxGeometry x="30" y="790" width="120" height="80" as="geometry" />
        </mxCell>
        <mxCell id="vTgYtGO2I8FvDi0Zc58N-73" value="" style="endArrow=none;html=1;rounded=0;entryX=1;entryY=1;entryDx=0;entryDy=0;exitX=0.253;exitY=0.058;exitDx=0;exitDy=0;exitPerimeter=0;" edge="1" parent="1" source="vTgYtGO2I8FvDi0Zc58N-68" target="vTgYtGO2I8FvDi0Zc58N-60">
          <mxGeometry width="50" height="50" relative="1" as="geometry">
            <mxPoint x="310" y="1110" as="sourcePoint" />
            <mxPoint x="360" y="1060" as="targetPoint" />
          </mxGeometry>
        </mxCell>
        <mxCell id="vTgYtGO2I8FvDi0Zc58N-74" value="" style="endArrow=none;html=1;rounded=0;exitX=0.5;exitY=0;exitDx=0;exitDy=0;entryX=0.5;entryY=1;entryDx=0;entryDy=0;" edge="1" parent="1" source="vTgYtGO2I8FvDi0Zc58N-69" target="vTgYtGO2I8FvDi0Zc58N-60">
          <mxGeometry width="50" height="50" relative="1" as="geometry">
            <mxPoint x="310" y="1110" as="sourcePoint" />
            <mxPoint x="360" y="1060" as="targetPoint" />
          </mxGeometry>
        </mxCell>
        <mxCell id="vTgYtGO2I8FvDi0Zc58N-75" value="" style="endArrow=none;html=1;rounded=0;exitX=1;exitY=0;exitDx=0;exitDy=0;entryX=0.25;entryY=1;entryDx=0;entryDy=0;" edge="1" parent="1" source="vTgYtGO2I8FvDi0Zc58N-70" target="vTgYtGO2I8FvDi0Zc58N-60">
          <mxGeometry width="50" height="50" relative="1" as="geometry">
            <mxPoint x="310" y="1110" as="sourcePoint" />
            <mxPoint x="360" y="1060" as="targetPoint" />
          </mxGeometry>
        </mxCell>
        <mxCell id="vTgYtGO2I8FvDi0Zc58N-76" value="" style="endArrow=none;html=1;rounded=0;exitX=1;exitY=0.5;exitDx=0;exitDy=0;entryX=0;entryY=0.5;entryDx=0;entryDy=0;" edge="1" parent="1" source="vTgYtGO2I8FvDi0Zc58N-71" target="vTgYtGO2I8FvDi0Zc58N-60">
          <mxGeometry width="50" height="50" relative="1" as="geometry">
            <mxPoint x="310" y="1110" as="sourcePoint" />
            <mxPoint x="360" y="1060" as="targetPoint" />
          </mxGeometry>
        </mxCell>
        <mxCell id="vTgYtGO2I8FvDi0Zc58N-77" value="" style="endArrow=none;html=1;rounded=0;entryX=0.25;entryY=0;entryDx=0;entryDy=0;exitX=1;exitY=0.5;exitDx=0;exitDy=0;" edge="1" parent="1" source="vTgYtGO2I8FvDi0Zc58N-72" target="vTgYtGO2I8FvDi0Zc58N-60">
          <mxGeometry width="50" height="50" relative="1" as="geometry">
            <mxPoint x="310" y="1110" as="sourcePoint" />
            <mxPoint x="360" y="1060" as="targetPoint" />
          </mxGeometry>
        </mxCell>
        <mxCell id="vTgYtGO2I8FvDi0Zc58N-78" value="" style="endArrow=none;html=1;rounded=0;entryX=0.392;entryY=0.017;entryDx=0;entryDy=0;entryPerimeter=0;exitX=0;exitY=0.75;exitDx=0;exitDy=0;" edge="1" parent="1" source="vTgYtGO2I8FvDi0Zc58N-62" target="vTgYtGO2I8FvDi0Zc58N-67">
          <mxGeometry width="50" height="50" relative="1" as="geometry">
            <mxPoint x="300" y="960" as="sourcePoint" />
            <mxPoint x="350" y="910" as="targetPoint" />
          </mxGeometry>
        </mxCell>
        <mxCell id="vTgYtGO2I8FvDi0Zc58N-79" value="" style="endArrow=none;html=1;rounded=0;exitX=0.5;exitY=0;exitDx=0;exitDy=0;entryX=0.347;entryY=1;entryDx=0;entryDy=0;entryPerimeter=0;" edge="1" parent="1" source="vTgYtGO2I8FvDi0Zc58N-66" target="vTgYtGO2I8FvDi0Zc58N-62">
          <mxGeometry width="50" height="50" relative="1" as="geometry">
            <mxPoint x="300" y="960" as="sourcePoint" />
            <mxPoint x="350" y="910" as="targetPoint" />
          </mxGeometry>
        </mxCell>
        <mxCell id="vTgYtGO2I8FvDi0Zc58N-80" value="" style="endArrow=none;html=1;rounded=0;exitX=0.269;exitY=0.092;exitDx=0;exitDy=0;exitPerimeter=0;entryX=0.903;entryY=1.111;entryDx=0;entryDy=0;entryPerimeter=0;" edge="1" parent="1" source="vTgYtGO2I8FvDi0Zc58N-63" target="vTgYtGO2I8FvDi0Zc58N-62">
          <mxGeometry width="50" height="50" relative="1" as="geometry">
            <mxPoint x="300" y="960" as="sourcePoint" />
            <mxPoint x="350" y="910" as="targetPoint" />
          </mxGeometry>
        </mxCell>
        <mxCell id="vTgYtGO2I8FvDi0Zc58N-81" value="" style="endArrow=none;html=1;rounded=0;entryX=1;entryY=0.5;entryDx=0;entryDy=0;" edge="1" parent="1" source="vTgYtGO2I8FvDi0Zc58N-65" target="vTgYtGO2I8FvDi0Zc58N-62">
          <mxGeometry width="50" height="50" relative="1" as="geometry">
            <mxPoint x="310" y="960" as="sourcePoint" />
            <mxPoint x="350" y="910" as="targetPoint" />
          </mxGeometry>
        </mxCell>
        <mxCell id="vTgYtGO2I8FvDi0Zc58N-82" value="" style="endArrow=none;html=1;rounded=0;entryX=1;entryY=0.25;entryDx=0;entryDy=0;exitX=0;exitY=0.5;exitDx=0;exitDy=0;" edge="1" parent="1" source="vTgYtGO2I8FvDi0Zc58N-64" target="vTgYtGO2I8FvDi0Zc58N-62">
          <mxGeometry width="50" height="50" relative="1" as="geometry">
            <mxPoint x="680" y="870" as="sourcePoint" />
            <mxPoint x="660" y="870" as="targetPoint" />
          </mxGeometry>
        </mxCell>
        <mxCell id="vTgYtGO2I8FvDi0Zc58N-83" value="" style="endArrow=none;html=1;rounded=0;exitX=1;exitY=0.5;exitDx=0;exitDy=0;entryX=0;entryY=0.25;entryDx=0;entryDy=0;" edge="1" parent="1" source="vTgYtGO2I8FvDi0Zc58N-61" target="vTgYtGO2I8FvDi0Zc58N-62">
          <mxGeometry width="50" height="50" relative="1" as="geometry">
            <mxPoint x="940" y="740" as="sourcePoint" />
            <mxPoint x="990" y="690" as="targetPoint" />
          </mxGeometry>
        </mxCell>
        <mxCell id="vTgYtGO2I8FvDi0Zc58N-84" value="" style="endArrow=none;html=1;rounded=0;exitX=1;exitY=0.5;exitDx=0;exitDy=0;entryX=0;entryY=0.5;entryDx=0;entryDy=0;" edge="1" parent="1" source="vTgYtGO2I8FvDi0Zc58N-60" target="vTgYtGO2I8FvDi0Zc58N-61">
          <mxGeometry width="50" height="50" relative="1" as="geometry">
            <mxPoint x="940" y="740" as="sourcePoint" />
            <mxPoint x="990" y="690" as="targetPoint" />
          </mxGeometry>
        </mxCell>
        <mxCell id="vTgYtGO2I8FvDi0Zc58N-85" value="" style="endArrow=none;html=1;rounded=0;exitX=0.5;exitY=0;exitDx=0;exitDy=0;entryX=0.5;entryY=1;entryDx=0;entryDy=0;" edge="1" parent="1" source="vTgYtGO2I8FvDi0Zc58N-60" target="vTgYtGO2I8FvDi0Zc58N-59">
          <mxGeometry width="50" height="50" relative="1" as="geometry">
            <mxPoint x="940" y="740" as="sourcePoint" />
            <mxPoint x="990" y="690" as="targetPoint" />
          </mxGeometry>
        </mxCell>
        <mxCell id="vTgYtGO2I8FvDi0Zc58N-86" value="" style="endArrow=none;html=1;rounded=0;exitX=0.5;exitY=0;exitDx=0;exitDy=0;entryX=0.5;entryY=1;entryDx=0;entryDy=0;" edge="1" parent="1" source="vTgYtGO2I8FvDi0Zc58N-59" target="vTgYtGO2I8FvDi0Zc58N-28">
          <mxGeometry width="50" height="50" relative="1" as="geometry">
            <mxPoint x="940" y="740" as="sourcePoint" />
            <mxPoint x="990" y="690" as="targetPoint" />
          </mxGeometry>
        </mxCell>
      </root>
    </mxGraphModel>
  </diagram>
</mxfile>
